<?xml version="1.0"?><svg id="Livello_1" data-name="Livello 1" xmlns="http://www.w3.org/2000/svg" viewBox="0 0 70.87 57.69" xmlns:c2pa="http://c2pa.org/manifest"><metadata><c2pa:manifest>AAAWgmp1bWIAAAAeanVtZGMycGEAEQAQgAAAqgA4m3EDYzJwYQAAABZcanVtYgAAAEdqdW1kYzJtYQARABCAAACqADibcQN1cm46YzJwYTo5ZTdmYmEzOS0yMDg1LTQzZjUtOWZiZS04NWI3MzZjZjVkMjgAAAADl2p1bWIAAAApanVtZGMyYXMAEQAQgAAAqgA4m3EDYzJwYS5hc3NlcnRpb25zAAAAALxqdW1iAAAARGp1bWRjYm9yABEAEIAAAKoAOJtxE2MycGEuaW5ncmVkaWVudC52MwAAAAAYYzJzaDnIEJtTiu2bVNl1YyBM3cUAAABwY2JvcqNpZGM6Zm9ybWF0bWltYWdlL3N2Zyt4bWxqaW5zdGFuY2VJRHgseG1wOmlpZDo2OTVhMjFkNi1mNmMwLTQ5MjItODJlOS0yOTJmNGExMGE1MzlscmVsYXRpb25zaGlwaHBhcmVudE9mAAAB4mp1bWIAAABBanVtZGNib3IAEQAQgAAAqgA4m3ETYzJwYS5hY3Rpb25zLnYyAAAAABhjMnNo53Wmsom9yJnoz6BbUBu4gAAAAZljYm9yomdhY3Rpb25zgqJmYWN0aW9ua2MycGEub3BlbmVkanBhcmFtZXRlcnOha2luZ3JlZGllbnRzgaJjdXJseC1zZWxmI2p1bWJmPWMycGEuYXNzZXJ0aW9ucy9jMnBhLmluZ3JlZGllbnQudjNkaGFzaFgg6GX/g1NA6MKF7loJsfcb6zjU29J3Q9pG3bQjWzy8sNWkZmFjdGlvbngdY29tLmFudGhyb3BpYy5jbGF1ZGUucHJvdmlkZWRqcGFyYW1ldGVyc6F4H2NvbS5hbnRocm9waWMub3JpZ2luLWNvbmZpZGVuY2VndW5rbm93bmtkZXNjcmlwdGlvbnhmQ2xhdWRlIHByb3ZpZGVkIHRoaXMgZmlsZSBhdCB0aGUgcmVxdWVzdCBvZiBhIHVzZXIgYW5kIG1heSBoYXZlIGNyZWF0ZWQgb3IgbW9kaWZpZWQgdGhlIGZpbGUgY29udGVudHMubXNvZnR3YXJlQWdlbnShZG5hbWVmQ2xhdWRlcmFsbEFjdGlvbnNJbmNsdWRlZPUAAADIanVtYgAAAEBqdW1kY2JvcgARABCAAACqADibcRNjMnBhLmhhc2guZGF0YQAAAAAYYzJzaL+YoaDIIh0BX+e1zKd8eN4AAACAY2JvcqVjYWxnZnNoYTI1NmNwYWRNAAAAAAAAAAAAAAAAAGRoYXNoWCAQe6sgX86C3bLO03GX4qJaseh/y3bKOTsmV+M9CZMXT2RuYW1lbmp1bWJmIG1hbmlmZXN0amV4Y2x1c2lvbnOBomVzdGFydBi7Zmxlbmd0aBkeBAAAAj5qdW1iAAAAJ2p1bWRjMmNsABEAEIAAAKoAOJtxA2MycGEuY2xhaW0udjIAAAACD2Nib3KlY2FsZ2ZzaGEyNTZpc2lnbmF0dXJleE1zZWxmI2p1bWJmPS9jMnBhL3VybjpjMnBhOjllN2ZiYTM5LTIwODUtNDNmNS05ZmJlLTg1YjczNmNmNWQyOC9jMnBhLnNpZ25hdHVyZWppbnN0YW5jZUlEeCx4bXA6aWlkOmVhNTdlMzMyLWMwMGEtNGZiMS1hNGE0LTc3YzhiZjZiY2VhMnJjcmVhdGVkX2Fzc2VydGlvbnODomN1cmx4LXNlbGYjanVtYmY9YzJwYS5hc3NlcnRpb25zL2MycGEuaW5ncmVkaWVudC52M2RoYXNoWCDoZf+DU0DowoXuWgmx9xvrONTb0ndD2kbdtCNbPLyw1aJjdXJseCpzZWxmI2p1bWJmPWMycGEuYXNzZXJ0aW9ucy9jMnBhLmFjdGlvbnMudjJkaGFzaFggX//apZWls9xyjv8Eg2efxL8eUuyljbKn/4ZZc9ivXJyiY3VybHgpc2VsZiNqdW1iZj1jMnBhLmFzc2VydGlvbnMvYzJwYS5oYXNoLmRhdGFkaGFzaFgg5k0+16iYBUd6rG07I8B7JfHXIxL5FHA7OTfZkxXBAb50Y2xhaW1fZ2VuZXJhdG9yX2luZm+jZG5hbWVvQW50aHJvcGljIEZpbGVzZ3ZlcnNpb25lMS4wLjBrc3BlY1ZlcnNpb25lMi40LjAAABA4anVtYgAAAChqdW1kYzJjcwARABCAAACqADibcQNjMnBhLnNpZ25hdHVyZQAAABAIY2JvctKEWQISogEmGCFZAgowggIGMIIBjaADAgECAhRA5aAK7sI50L64g/oGQgU9Z1UTADAKBggqhkjOPQQDAzBJMRcwFQYDVQQKEw5BbnRocm9waWMsIFBCQzEuMCwGA1UEAxMlQW50aHJvcGljIENvbnRlbnQgQ3JlZGVudGlhbHMgUm9vdCBDQTAeFw0yNjA4MDcxODQzNTZaFw0yODA4MDYxOTQzNTZaMEQxFzAVBgNVBAoTDkFudGhyb3BpYywgUEJDMSkwJwYDVQQDEyBBbnRocm9waWMgQ2xhdWRlIENvbnRlbnQgU2lnbmluZzBZMBMGByqGSM49AgEGCCqGSM49AwEHA0IABJh6CmvLUBgFFNU0vUKlOVtE6djd17L5SuwX0LemFisBM3dkd/3cyjxFA3Qo5S46fX0/ihY0VZ7mfb9KF703t5OjWDBWMA4GA1UdDwEB/wQEAwIHgDAVBgNVHSUEDjAMBgorBgEEAYPoXgIBMAwGA1UdEwEB/wQCMAAwHwYDVR0jBBgwFoAUzlHiBIFOZFsj+OPEz5o+nMHXXMIwCgYIKoZIzj0EAwMDZwAwZAIwMXMdFJ4BetLLVY7ORuE9noqbbAZOZn/aArXyTwFAZfKrPzxF2vPoJNf1+UCdg1XGAjBwX1zd9WGqYkqmL5SFqw1QySjr1zJfpJM9+1rdDwSPLMOPOjKuiXjoU/pUUeG9RwmhY3BhZFkNngAAAAAAAAAAAAAAAAAAAAAAAAAAAAAAAAAAAAAAAAAAAAAAAAAAAAAAAAAAAAAAAAAAAAAAAAAAAAAAAAAAAAAAAAAAAAAAAAAAAAAAAAAAAAAAAAAAAAAAAAAAAAAAAAAAAAAAAAAAAAAAAAAAAAAAAAAAAAAAAAAAAAAAAAAAAAAAAAAAAAAAAAAAAAAAAAAAAAAAAAAAAAAAAAAAAAAAAAAAAAAAAAAAAAAAAAAAAAAAAAAAAAAAAAAAAAAAAAAAAAAAAAAAAAAAAAAAAAAAAAAAAAAAAAAAAAAAAAAAAAAAAAAAAAAAAAAAAAAAAAAAAAAAAAAAAAAAAAAAAAAAAAAAAAAAAAAAAAAAAAAAAAAAAAAAAAAAAAAAAAAAAAAAAAAAAAAAAAAAAAAAAAAAAAAAAAAAAAAAAAAAAAAAAAAAAAAAAAAAAAAAAAAAAAAAAAAAAAAAAAAAAAAAAAAAAAAAAAAAAAAAAAAAAAAAAAAAAAAAAAAAAAAAAAAAAAAAAAAAAAAAAAAAAAAAAAAAAAAAAAAAAAAAAAAAAAAAAAAAAAAAAAAAAAAAAAAAAAAAAAAAAAAAAAAAAAAAAAAAAAAAAAAAAAAAAAAAAAAAAAAAAAAAAAAAAAAAAAAAAAAAAAAAAAAAAAAAAAAAAAAAAAAAAAAAAAAAAAAAAAAAAAAAAAAAAAAAAAAAAAAAAAAAAAAAAAAAAAAAAAAAAAAAAAAAAAAAAAAAAAAAAAAAAAAAAAAAAAAAAAAAAAAAAAAAAAAAAAAAAAAAAAAAAAAAAAAAAAAAAAAAAAAAAAAAAAAAAAAAAAAAAAAAAAAAAAAAAAAAAAAAAAAAAAAAAAAAAAAAAAAAAAAAAAAAAAAAAAAAAAAAAAAAAAAAAAAAAAAAAAAAAAAAAAAAAAAAAAAAAAAAAAAAAAAAAAAAAAAAAAAAAAAAAAAAAAAAAAAAAAAAAAAAAAAAAAAAAAAAAAAAAAAAAAAAAAAAAAAAAAAAAAAAAAAAAAAAAAAAAAAAAAAAAAAAAAAAAAAAAAAAAAAAAAAAAAAAAAAAAAAAAAAAAAAAAAAAAAAAAAAAAAAAAAAAAAAAAAAAAAAAAAAAAAAAAAAAAAAAAAAAAAAAAAAAAAAAAAAAAAAAAAAAAAAAAAAAAAAAAAAAAAAAAAAAAAAAAAAAAAAAAAAAAAAAAAAAAAAAAAAAAAAAAAAAAAAAAAAAAAAAAAAAAAAAAAAAAAAAAAAAAAAAAAAAAAAAAAAAAAAAAAAAAAAAAAAAAAAAAAAAAAAAAAAAAAAAAAAAAAAAAAAAAAAAAAAAAAAAAAAAAAAAAAAAAAAAAAAAAAAAAAAAAAAAAAAAAAAAAAAAAAAAAAAAAAAAAAAAAAAAAAAAAAAAAAAAAAAAAAAAAAAAAAAAAAAAAAAAAAAAAAAAAAAAAAAAAAAAAAAAAAAAAAAAAAAAAAAAAAAAAAAAAAAAAAAAAAAAAAAAAAAAAAAAAAAAAAAAAAAAAAAAAAAAAAAAAAAAAAAAAAAAAAAAAAAAAAAAAAAAAAAAAAAAAAAAAAAAAAAAAAAAAAAAAAAAAAAAAAAAAAAAAAAAAAAAAAAAAAAAAAAAAAAAAAAAAAAAAAAAAAAAAAAAAAAAAAAAAAAAAAAAAAAAAAAAAAAAAAAAAAAAAAAAAAAAAAAAAAAAAAAAAAAAAAAAAAAAAAAAAAAAAAAAAAAAAAAAAAAAAAAAAAAAAAAAAAAAAAAAAAAAAAAAAAAAAAAAAAAAAAAAAAAAAAAAAAAAAAAAAAAAAAAAAAAAAAAAAAAAAAAAAAAAAAAAAAAAAAAAAAAAAAAAAAAAAAAAAAAAAAAAAAAAAAAAAAAAAAAAAAAAAAAAAAAAAAAAAAAAAAAAAAAAAAAAAAAAAAAAAAAAAAAAAAAAAAAAAAAAAAAAAAAAAAAAAAAAAAAAAAAAAAAAAAAAAAAAAAAAAAAAAAAAAAAAAAAAAAAAAAAAAAAAAAAAAAAAAAAAAAAAAAAAAAAAAAAAAAAAAAAAAAAAAAAAAAAAAAAAAAAAAAAAAAAAAAAAAAAAAAAAAAAAAAAAAAAAAAAAAAAAAAAAAAAAAAAAAAAAAAAAAAAAAAAAAAAAAAAAAAAAAAAAAAAAAAAAAAAAAAAAAAAAAAAAAAAAAAAAAAAAAAAAAAAAAAAAAAAAAAAAAAAAAAAAAAAAAAAAAAAAAAAAAAAAAAAAAAAAAAAAAAAAAAAAAAAAAAAAAAAAAAAAAAAAAAAAAAAAAAAAAAAAAAAAAAAAAAAAAAAAAAAAAAAAAAAAAAAAAAAAAAAAAAAAAAAAAAAAAAAAAAAAAAAAAAAAAAAAAAAAAAAAAAAAAAAAAAAAAAAAAAAAAAAAAAAAAAAAAAAAAAAAAAAAAAAAAAAAAAAAAAAAAAAAAAAAAAAAAAAAAAAAAAAAAAAAAAAAAAAAAAAAAAAAAAAAAAAAAAAAAAAAAAAAAAAAAAAAAAAAAAAAAAAAAAAAAAAAAAAAAAAAAAAAAAAAAAAAAAAAAAAAAAAAAAAAAAAAAAAAAAAAAAAAAAAAAAAAAAAAAAAAAAAAAAAAAAAAAAAAAAAAAAAAAAAAAAAAAAAAAAAAAAAAAAAAAAAAAAAAAAAAAAAAAAAAAAAAAAAAAAAAAAAAAAAAAAAAAAAAAAAAAAAAAAAAAAAAAAAAAAAAAAAAAAAAAAAAAAAAAAAAAAAAAAAAAAAAAAAAAAAAAAAAAAAAAAAAAAAAAAAAAAAAAAAAAAAAAAAAAAAAAAAAAAAAAAAAAAAAAAAAAAAAAAAAAAAAAAAAAAAAAAAAAAAAAAAAAAAAAAAAAAAAAAAAAAAAAAAAAAAAAAAAAAAAAAAAAAAAAAAAAAAAAAAAAAAAAAAAAAAAAAAAAAAAAAAAAAAAAAAAAAAAAAAAAAAAAAAAAAAAAAAAAAAAAAAAAAAAAAAAAAAAAAAAAAAAAAAAAAAAAAAAAAAAAAAAAAAAAAAAAAAAAAAAAAAAAAAAAAAAAAAAAAAAAAAAAAAAAAAAAAAAAAAAAAAAAAAAAAAAAAAAAAAAAAAAAAAAAAAAAAAAAAAAAAAAAAAAAAAAAAAAAAAAAAAAAAAAAAAAAAAAAAAAAAAAAAAAAAAAAAAAAAAAAAAAAAAAAAAAAAAAAAAAAAAAAAAAAAAAAAAAAAAAAAAAAAAAAAAAAAAAAAAAAAAAAAAAAAAAAAAAAAAAAAAAAAAAAAAAAAAAAAAAAAAAAAAAAAAAAAAAAAAAAAAAAAAAAAAAAAAAAAAAAAAAAAAAAAAAAAAAAAAAAAAAAAAAAAAAAAAAAAAAAAAAAAAAAAAAAAAAAAAAAAAAAAAAAAAAAAAAAAAAAAAAAAAAAAAAAAAAAAAAAAAAAAAAAAAAAAAAAAAAAAAAAAAAAAAAAAAAAAAAAAAAAAAAAAAAAAAAAAAAAAAAAAAAAAAAAAAAAAAAAAAAAAAAAAAAAAAAAAAAAAAAAAAAAAAAAAAAAAAAAAAAAAAAAAAAAAAAAAAAAAAAAAAAAAAAAAAAAAAAAAAAAAAAAAAAAAAAAAAAAAAAAAAAAAAAAAAAAAAAAAAAAAAAAAAAAAAAAAAAAAAAAAAAAAAAAAAAAAAAAAAAAAAAAAAAAAAAAAAAAAAAAAAAAAAAAAAAAAAAAAAAAAAAAAAAAAAAAAAAAAAAAAAAAAAAAAAAAAAAAAAAAAAAAAAAAAAAAAAAAAAAAAAAAAAAAAAAAAAAAAAAAAAAAAAAAAAAAAAAAAAAAAAAAAAAAAAAAAAAAAAAAAAAAAAAAAAAAAAAAAAAAAAAAAAAAAAAAAAAAAAAAAAAAAAAAAAAAAAAAAAAAAAAAAAAAAAAAAAAAAAAAAAAAAAAAAAAAAAAAAAAAAAAAAAAAAAAAAAAAAAAAAAAAAAAAAAAAAAAAAAAAAAAAAAAAAAAAAAAAAAAAAAAAAAAAAAAAAAAAAAAAAAAAAAAAAAAAAAAAAAAAAAAAAAAAAAAAAAAAAAAAAAAAAAAAAAAAAAAAAAAAAAAAAAAAAAAAAAAAAAAAAAAAAAAAAAAAAAAAAAAAAAAAAAAAAAAAAAAAAAAAAAAAAAAAAAAAAAAAAAAAAAAAAAAAAAAAAAAAAAAAAAAAAAAAAAAAAAAAAAAAAAAAAAAAAAAAAAAAAAAAAAAAAAAAAAAAAAAAAAAAAAAAAAAAAAAAAAAAAAAAAAAAAAAAAAAAAAAAAAAAAAAAAAAAAAAAAAAAAAAAAAAAAAAAAAAAAAAAAAAAAAAAAAAAAAAAAAAAAAAAAAAAAAAAAAAAAAAAAAAAAAAAAAAAAAAAAAAAAAAAAAAAAAAAAAAAAAAAAAAAAAAAAAAAAAAAAAAAAAAAAAAAAAAAAAAAAAAAAAAAAAAAAAAAAAAAAAAAAAAAAAAAAAAAAAAAAAAAAAAAAAAAAAAAAAAAAAAAAAAAAAAAAAAAAAAAAAAAAAAAAAAAAAAAAAAAAAAAAAAAAAAAAAAAAAAAAAAAAAAAAAAAAAAAAAAAAAAAAAAAAAAAAAAAAAAAAAAAAAAAAAAAAAAAAAAAAAAAAAAAAAAAAAAAAAAAAAAAAAAAAAAAAAAAAAAAAAAAAAAAAAAAAAAAAAAAAAAAAAAAAAAAAAAAAAAAAAAAAAAAAAAAPZYQNjbv4IbtP/FY12wAEtbovlWoaadueihToRxODhHdx80CAnkoo+tOzCv9D+13Rv1YKGcQxaFa0Kr3iswi4JvJ64=</c2pa:manifest></metadata>
  <path d="M67.75,28.95c-.08-.04-.15-.08-.23-.11.14-.45.3-.95.22-1.53-.2-1.4-1.32-2.49-2.73-2.63-.03,0-.06,0-.1-.01.14-.98-.23-1.85-1.07-2.48-.86-.65-1.87-.92-2.91-.77-.17.02-.33.06-.49.1-1.47-4.5-4.12-8.48-7.58-11.56.1-.21.14-.4.14-.56,0-.29-.1-.72-.59-1.13-.62-.51-1.27-.98-1.91-1.44-.18-.13-.36-.2-.52-.27-.06-.03-.12-.05-.18-.08-.33-.17-.86-.29-1.5.09-.04.02-.07.04-.11.06-3.58-2-7.66-3.2-12.01-3.34-.1-.11-.2-.22-.31-.33-.26-.26-.53-.52-.8-.77l-.18-.17c-.48-.45-1.06-.53-1.6-.22-.02,0-.04.02-.06.03-.07.03-.14.06-.21.09-.89.49-1.73,1.09-2.53,1.8-11.41,2.11-20.26,11.58-21.46,23.28-.01.04-.03.08-.04.12-.63-.08-1.33-.1-2.02.16-1.33.5-2.4,1.28-3.16,2.31-.73.98-1.33,2.11-1.8,3.35-.29.77-.43,1.42-.44,2.05-.02.83.33,1.66.95,2.27.52.5,1.18.81,1.85.86.32.79.93,1.37,1.82,1.73.78.32,1.6.37,2.44.15.15.21.31.43.5.64.71.8,1.72,1.24,2.75,1.25,4.41,8.45,13.26,14.24,23.43,14.24,11.91,0,22-7.93,25.29-18.79.48-.1.94-.25,1.37-.45.31-.15.66-.32.93-.62.24,0,.49,0,.74-.02,1.49-.16,2.83-.81,4.08-1.98.51-.48.9-.98,1.18-1.52.78-1.48.31-3-1.17-3.79" fill="#fff"></path>
  <path d="M35.32,57.69c-10.18,0-19.46-5.47-24.43-14.34-1.12-.22-2.14-.8-2.91-1.66-.81.06-1.6-.08-2.37-.39-.97-.39-1.73-1-2.26-1.79-.71-.21-1.37-.6-1.92-1.14C.5,37.47-.02,36.22,0,34.95c.02-.81.19-1.63.54-2.57.52-1.38,1.2-2.64,2.01-3.74.95-1.28,2.25-2.24,3.88-2.85.42-.16.82-.24,1.21-.28C9.39,13.96,18.3,4.54,29.79,2.23c.79-.67,1.63-1.24,2.49-1.71.13-.07.25-.12.38-.17,1.02-.59,2.35-.42,3.34.52l.17.16c.24.23.49.46.73.7,3.96.22,7.87,1.3,11.38,3.14.78-.23,1.55-.16,2.25.19.29.12.59.25.91.48.67.49,1.35.98,1.99,1.51.75.62,1.17,1.45,1.17,2.34,3.06,2.91,5.44,6.47,6.93,10.4,1.18,0,2.3.39,3.29,1.13.87.66,1.44,1.54,1.64,2.52,1.54.63,2.63,1.99,2.87,3.65.05.37.05.71.01,1.02,1.58,1.31,2.02,3.43,1,5.38-.37.7-.86,1.33-1.5,1.93-1.51,1.42-3.15,2.21-5,2.4-.11.01-.21.02-.32.02-.29.2-.59.35-.86.48-.25.12-.52.22-.79.31-3.81,11.27-14.6,19.07-26.54,19.07M9.29,38.17l.64.88c.12.17.25.35.4.51.4.45.98.71,1.58.72h.95s.44.85.44.85c4.31,8.26,12.75,13.38,22.03,13.38,10.85,0,20.62-7.26,23.77-17.66l.27-.9.92-.19c.36-.08.71-.19,1.03-.34.11-.05.34-.16.43-.25l.48-.53h.71c.18.02.36.02.55,0,1.15-.12,2.16-.62,3.16-1.56.38-.36.67-.72.86-1.1.37-.71.19-1.28-.51-1.65l-1.43-.64.43-1.35c.12-.37.19-.61.16-.83-.1-.68-.64-1.21-1.32-1.28l-1.63-.17.13-1.63c.04-.29.02-.64-.46-1-.53-.4-1.1-.55-1.73-.46-.12.02-.23.04-.34.07l-1.4.31-.48-1.36c-1.36-4.17-3.83-7.93-7.13-10.87l-.91-.81.44-.88c-.6-.5-1.19-.92-1.76-1.33-.04-.03-.14-.07-.22-.1-.08-.03-.18-.08-.28-.13l-.79.47-.88-.34c-3.44-1.93-7.34-3.01-11.29-3.14l-.66-.02-.73-.78c-.24-.25-.5-.49-.75-.73l-.08-.08-.06.03c-.82.44-1.58.98-2.29,1.61l-.33.29-.43.08c-10.76,1.99-19.06,10.99-20.17,21.88l-.06.29-.38,1.3-1.38-.06c-.56-.07-.94-.05-1.26.07-1.04.39-1.87.99-2.45,1.77-.64.86-1.17,1.86-1.59,2.96-.22.6-.33,1.08-.34,1.52,0,.4.16.8.47,1.1.25.24.56.39.88.42l.97.08.37.9c.1.24.31.6.95.86.46.19.93.22,1.43.08l1.05-.28Z" fill="#fff"></path>
  <path d="M41.54,24.49c-.75-.71-1.61-1.23-2.58-1.53-1.19-.37-2.42-.36-3.64-.34-.78.01-1.52.02-2.25-.25-.76-.28-1.45-.75-2.16-1.45-.38-.37-.75-.75-1.13-1.13-.42-.42-.84-.84-1.26-1.26-.68-.66-1.31-1.11-2-1.39-.96-.4-1.88-.3-2.75.29-1.11.76-1.83,1.86-2.22,3.38-.08.31-.12.63-.11.93,0,.69.15,1.41.44,2.18.47,1.25,1.3,2.37,2.53,3.44,2.83,2.47,6.3,3.9,10.31,4.26h0s1.57-.03,1.57-.03c1.19-.02,2.38-.29,3.61-.83.56-.24,1.09-.6,1.59-1.08.73-.7,1.14-1.63,1.14-2.62,0-.98-.4-1.89-1.11-2.57M41.16,27.04c0,.61-.26,1.2-.76,1.66-.81.74-1.8,1.04-2.76,1.27-.85.2-2.47.23-3.26.13h0c-2.13-.2-4.12-.8-6.07-1.83-1.81-.95-3.19-2.06-4.2-3.39-.62-.81-1.01-1.71-1.15-2.68-.19-1.32.68-3.03,1.87-3.65.18-.1.36-.15.55-.15.13,0,.26.02.39.07.46.15.89.4,1.26.74.31.28.62.59.92.88.15.15.31.3.46.45.21.21.43.42.64.63.49.49,1,.99,1.53,1.45,1.18,1.02,2.54,1.53,4.05,1.53h.05c.24,0,.48-.02.71-.04h.16c1.88-.17,3.39.22,4.64,1.19.06.05.13.1.19.16.5.43.78,1.01.79,1.61" fill="#1d1d1b"></path>
  <path d="M37.82,26.65c-.07,0-.14.01-.21.02-.06,0-.11.02-.17.02-1.51.05-2.85-.05-4.13-.3-1.66-.32-3.17-1.02-4.48-2.09-1.15-.94-2.18-2.05-3.06-3.32l-.03-.05c-.06-.09-.13-.19-.22-.28-.26-.26-.61-.3-.91-.12-.31.19-.42.57-.27.92.06.14.13.27.22.37.18.22.36.44.53.67.43.54.87,1.1,1.35,1.61,2.35,2.5,5.22,3.84,8.55,4h0c.2,0,.4,0,.59,0,.15,0,.3,0,.45,0,.33,0,.67,0,1.01-.01.33,0,.66-.06,1-.14.33-.08.54-.41.49-.75-.06-.34-.36-.58-.72-.57" fill="#1d1d1b"></path>
  <path d="M67.74,28.94c-.08-.04-.15-.08-.23-.11.14-.44.3-.95.22-1.53-.2-1.4-1.32-2.49-2.73-2.63-.03,0-.06,0-.1,0,.14-.98-.23-1.85-1.07-2.48-.87-.65-1.87-.92-2.91-.77-.17.03-.33.06-.49.1-1.47-4.5-4.12-8.48-7.58-11.56.1-.21.14-.4.14-.56,0-.29-.1-.72-.59-1.12-.62-.51-1.27-.98-1.91-1.44-.18-.13-.36-.2-.51-.27-.06-.03-.12-.05-.18-.08-.33-.17-.86-.29-1.49.09-.04.02-.07.04-.11.06-3.57-2-7.66-3.2-12.01-3.34-.1-.11-.2-.22-.3-.33-.26-.26-.53-.52-.8-.77l-.18-.17c-.48-.45-1.06-.53-1.6-.22-.02.01-.04.02-.06.03-.07.03-.14.06-.2.09-.89.49-1.73,1.09-2.53,1.8-11.41,2.11-20.26,11.58-21.46,23.28-.01.04-.03.08-.04.12-.63-.08-1.33-.1-2.02.16-1.33.5-2.4,1.28-3.16,2.31-.73.98-1.33,2.11-1.8,3.35-.29.77-.43,1.42-.44,2.05-.02.84.33,1.66.95,2.27.52.5,1.18.81,1.85.86.32.79.93,1.37,1.82,1.73.78.32,1.6.37,2.44.15.16.21.32.43.5.64.71.8,1.72,1.24,2.75,1.26,4.41,8.45,13.26,14.24,23.43,14.24,11.91,0,22-7.93,25.29-18.79.48-.1.94-.25,1.37-.45.32-.15.66-.32.93-.62.24,0,.49,0,.74-.02,1.5-.16,2.83-.8,4.08-1.98.51-.48.9-.98,1.18-1.52.78-1.48.31-3-1.17-3.79M63.39,26.53c.54-.15,1.09-.21,1.64-.05.67.2,1.03.85.82,1.55-.11.36-.24.74-.46,1.05-.91,1.27-2.06,2.22-3.62,2.61-.55.14-1.1.14-1.65.05-.29-.05-.41-.11-.62-.34.85-.42,1.27-1.15,1.46-2.04.03-.14.06-.28.05-.42-.04-.33.13-.51.38-.69.64-.45,1.25-.94,1.76-1.54.06-.07.14-.15.23-.18M61.92,23.25c.08.02.17.02.25.06,1.08.43,1.12.94.72,1.74-.28.55-.66,1.03-1.12,1.43-.32.28-.66.54-1.02.84-.55-1.15-1.43-1.88-2.62-2.32.6-.76,1.33-1.25,2.17-1.59.53-.21,1.07-.28,1.63-.17M58.87,22.07c-.88.47-1.63,1.17-2.23,2.09,0,0,0,.01-.01.02h-.02c-.81,0-1.6.19-2.35.56-1.35.67-1.93,1.81-1.94,3.32,0,1.05.15,2.08.79,3.14,0,0,0,0,0,.01-.38.22-.77.4-1.19.57.56-4.42-.17-8.28-2.24-11.74.97-1.26,1.43-2.65,1.37-4.14-.05-1.42-.55-2.67-1.48-3.74l.07-.04c.65-.37,1.29-.74,1.92-1.1,3.35,2.92,5.91,6.73,7.31,11.06M34.57,48.13c.92.22,1.79.43,2.69.65-.4.66-.9,1.15-1.53,1.5-.63.35-1.33.47-2.11.5-.22-.58-.46-1.2-.71-1.85.66-.09,1.25-.26,1.66-.8M32.5,47.83c-.1-.24-.21-.5-.31-.77-.1-.26-.2-.53-.32-.86.74.14,1.42.28,2.09.41,0,.83-.6,1.4-1.46,1.22M36.78,45.83c-3.99-.43-7.85-1.42-11.62-2.78-3.12-1.13-6.14-2.48-9.04-4.09-.15-.08-.29-.17-.48-.27.41-.9.25-1.65-.46-2.35.6-.32,1.15-.67,1.46-1.26.05.01.08,0,.09.02,1.96,1.63,4.17,2.81,6.51,3.77,2.25.93,4.57,1.66,6.95,2.15,1.52.31,3.04.6,4.57.83,1.82.26,3.66.38,5.5.4,2.29.02,4.58-.11,6.84-.53.5-.09,1-.21,1.55-.32.21.7.4,1.4-.01,2.11-.06.1-.12.21-.2.27-.38.29-.71.65-1.15.86-1.23.6-2.53.94-3.87,1.15-2.21.34-4.43.28-6.65.05M16.18,29.11s.09.07.13.11c.01,0,.02.02.02.02-.33.51-.66,1.01-1.01,1.56-.6-.47-1.33-.8-2.14-1.03-.02-.34.11-.62.25-.9.45-.91,1.15-1.61,1.96-2.21.24-.17.5-.32.81-.53-.04.18-.06.27-.08.36-.13.45-.26.9-.39,1.35-.16.53-.08.98.45,1.27M23.29,36.06c.48-.06.96-.13,1.44-.18.21-.02.43-.02.64,0,.23.02.41.13.5.35.3.72.59,1.45.87,2.18.06.15.06.33.1.57-.99-.36-1.91-.68-2.82-1.04-1.96-.77-3.85-1.71-5.56-2.96-.42-.31-.82-.66-1.23-.99-.19-.15-.27-.34-.31-.58-.06-.35-.15-.7-.29-1.02-.29-.64-.21-1.23.11-1.87,1.37,1.08,2.83,1.94,4.32,2.76.07.45.13.9.23,1.35.21.98,1.01,1.54,2.01,1.43M22.05,32.05c3.78,1.71,7.6,2.97,11.67,3.75-.39.45-.71.85-1.06,1.22-.81.87-1.64,1.71-2.61,2.39-.28.2-.54.34-.9.18-.3-.12-.62-.18-.97-.27-.09-.35-.18-.69-.27-1.03-.06-.22-.11-.44-.19-.65-.24-.61-.5-1.21-.75-1.82-.32-.78-.97-1.16-1.92-1.13-.5.01-.99.1-1.48.16-.03,0-.06.02-.08.02-.78.11-1.01-.04-1.15-.81-.12-.64-.18-1.29-.29-2.02M48.29,40.24c-1,.34-2.05.46-3.09.6-1.41.19-2.83.27-4.26.26-1.32-.01-2.65-.1-3.97-.18-1.85-.12-3.67-.43-5.49-.77-.12-.02-.24-.07-.43-.13,1.16-.85,2.15-1.82,3.03-2.86,1.04.2,2.03.44,3.04.58.97.13,1.96.2,2.94.19,1.12,0,2.24-.09,3.36-.19.9-.09,1.8-.25,2.7-.4.98-.16,1.96-.35,2.89-.72.04-.01.08,0,.14-.01.22.63.25,1.28.19,1.93-.02.23-.05.46-.12.67-.15.48-.42.85-.93,1.03M49.17,33.81c-1.55.68-3.17,1.08-4.84,1.31-2.46.34-4.92.28-7.37,0-4.32-.48-8.48-1.64-12.5-3.28-2.6-1.06-5.09-2.34-7.48-3.81-.02-.01-.04-.04-.08-.08.28-.21.54-.42.83-.61.79-.53,1.61-1.02,2.38-1.59.81-.6,1.27-1.42,1.16-2.47-.07-.68-.47-1.15-1.11-1.39-.26-.1-.53-.18-.82-.27.16-.62.41-1.18.7-1.72,1.27-2.4,3.18-4.14,5.58-5.36,1.63-.83,3.37-1.28,5.19-1.42.3-.02.59,0,.94,0-.08.16-.14.28-.2.4-.72,1.38-.88,2.82-.39,4.3.89,2.69,3.87,3.95,6.51,2.76,1.03-.46,1.84-1.19,2.44-2.14.08-.12.15-.24.23-.37,1.17,3.41,4.87,4.45,7.63,2.67.1.15.2.29.3.44.85,1.39,1.38,2.9,1.7,4.49.48,2.44.47,4.87-.11,7.29-.1.4-.28.65-.68.83M35.67,14.01c.66.51.91,1.32.64,2.05-.27.75-.92,1.11-1.69.94-.43-.09-.54-.02-.58.41-.04.6.07,1.19.23,1.77.04.15.08.29.13.49-.67-.23-1.16-.6-1.55-1.1-.79-1.03-1.01-2.19-.7-3.43.38-1.54,1.33-2.61,2.82-3.19.22-.09.37-.06.52.12.12.14.26.27.38.4.03.03.05.07.08.11-.15.22-.31.44-.44.67-.22.37-.2.47.15.74M44.42,15.16c.16.04.34.06.5.11.47.15.77.56.8,1.05.05.83-.69,1.62-1.53,1.6-.17,0-.34-.03-.51-.02-.27,0-.4.14-.34.41.1.44.23.88.35,1.32.06.2.13.39.16.61-1.43-.54-2.27-1.58-2.5-3.06-.26-1.66.31-3.04,1.57-4.16.44.5.85.96,1.28,1.46-.05.13-.12.31-.22.54.16.06.3.12.44.15M48.29,8.6h0c.2-.13.4-.26.6-.39.24-.16.43-.16.65.02.46.37.93.73,1.45,1.14-.3.15-.6.3-.9.46-.46.24-.92.49-1.37.75-.03.02-.07.04-.1.06-.43.25-.85.5-1.28.75-.06.04-.12.07-.18.11-.41.25-.82.5-1.23.75-.08.05-.17.1-.25.16-.38.24-.76.47-1.14.71-.34-.34-.65-.65-.97-.97,0,0,0-.01.01-.02.05-.06.08-.1.11-.13.01-.01.02-.03.04-.04,0,0,0,0,0,0,.38-.33.76-.64,1.16-.95.19-.15.38-.29.56-.43.2-.15.4-.3.61-.45.27-.19.54-.38.81-.57.11-.08.23-.16.34-.24.35-.24.71-.48,1.06-.71ZM46.53,7.61c-1.42.9-2.79,1.93-4.18,3.14l-.07.06c-.08.07-.17.15-.26.24,0-.01-.01-.02-.02-.03-.08-.18-.18-.34-.27-.48l-.03-.04c-.84-1.35-1.81-2.6-2.74-3.8-.17-.22-.34-.44-.5-.66-.26-.33-.52-.67-.78-1.01,3.16.3,6.15,1.2,8.85,2.58M30.98,5.62c.15-.13.29-.26.44-.39.79-.67,1.64-1.27,2.58-1.79.42.49.83.98,1.24,1.47h0c.38.45.74.91,1.11,1.37.12.15.24.31.36.46.31.39.62.79.92,1.19.22.28.43.57.64.86.22.3.45.61.67.91.45.63.9,1.26,1.34,1.9-.15.09-.28.17-.43.26-.32.2-.63.39-.94.58-.3.19-.6.37-.9.55-.31-.29-.61-.59-.92-.9-.3-.3-.6-.61-.89-.91-1.77-1.84-3.46-3.73-5.36-5.46.04-.04.09-.07.13-.11M28.94,5.76c0,.34.17.67.52,1.03,1.28,1.33,2.56,2.66,3.84,3.99-.24.15-.48.31-.72.48-.12.09-.15.08-.21.08-2.16-.16-4.34.21-6.47,1.1-3.43,1.42-5.97,3.7-7.56,6.8-.23.45-.42.91-.6,1.36-.03.08-.06.16-.1.24-.26,0-.53.02-.81.05-2.11.21-3.93,1.06-5.45,2.51,2.25-8.58,9-15.35,17.56-17.64M10.44,39.42c-.28-.31-.53-.67-.75-1.04-.27-.44-.6-.55-1.08-.35-.22.09-.45.18-.68.23-.57.12-1.07-.05-1.51-.4-.3-.24-.48-.56-.42-.97.02-.12,0-.26,0-.38-.07-.48-.43-.65-.84-.39-.22.14-.45.26-.71.22-.13-.02-.29-.06-.39-.15-.49-.41-.73-.91-.59-1.58.33-1.59,1.07-2.97,2.05-4.23.53-.67,1.26-1.12,2.06-1.4.56-.19,1.15-.16,1.72.02.09.03.19.07.28.1.48.15.76-.02.9-.5.13-.48.26-.96.42-1.43.2-.64.6-1.16,1.02-1.67.96-1.15,2.09-2.06,3.55-2.5,1.07-.32,2.17-.47,3.29-.36.32.03.65.11.96.2.42.13.58.44.49.86-.06.27-.18.5-.43.79-.4-.06-.79-.15-1.18-.18-.69-.05-1.36.12-2,.38-1.5.59-2.73,1.53-3.68,2.82-.44.59-.75,1.24-.87,1.98-.11.71.14,1.15.84,1.35.73.22,1.43.5,1.97,1.05.25.25.47.53.68.82.32.47.32.99.21,1.52-.03.16-.12.33-.22.46-.51.61-1.17.84-2.02.87.19-.42.34-.79.5-1.15.06-.14.15-.28.2-.43.09-.25-.02-.5-.24-.62-.21-.11-.44-.07-.62.12-.06.06-.1.14-.14.21-.48.89-.92,1.8-1.18,2.79-.11.43-.16.87-.21,1.31-.02.15,0,.31.04.46.07.28.3.45.56.45.25,0,.48-.19.54-.47.03-.14.03-.28.04-.42.02-.23.04-.45.07-.68,0-.07.04-.13.07-.22.45-.04.88-.06,1.26.23.32.25.44.57.27.9-.54,1.04-1.36,1.76-2.54,1.95-.64.11-1.22-.13-1.66-.61M19.43,48.56s-.05.01-.05.01h-.02s0,0-.01,0c-2.34-1.98-4.3-4.38-5.78-7.09.53-.25,1.02-.58,1.51-1.02,2.71,1.5,5.54,2.81,8.42,3.89l.02.03c.39.86.78,1.71,1.17,2.57l.47,1.03-5.5.54c-.07,0-.14.02-.21.03M24.53,51.95c-1.07-.52-2.1-1.12-3.08-1.78.77-.07,1.54-.15,2.31-.23.95-.09,1.9-.18,2.89-.27.29.63.58,1.27.9,1.97-1.02.1-2.02.21-3.02.31M29.81,53.81c-.2-.43-.39-.86-.59-1.28-.91-1.98-1.81-3.96-2.72-5.94-.06-.13-.11-.26-.21-.48,1.63.55,3.18,1.13,4.84,1.41.88,2.28,1.76,4.57,2.64,6.86-1.35-.08-2.68-.28-3.96-.57M35.74,54.43c-.1-.27-.21-.54-.31-.81-.08-.22-.17-.43-.25-.64-.07-.18-.14-.35-.21-.53,2.34-.51,3.88-2.03,4.68-4.62.19,0,.38-.01.56-.02.61-.02,1.21-.03,1.82-.06,1.42-.07,2.77-.3,4.02-.69,1.18-.37,2.41-.8,3.43-1.75.82-.77,1.2-1.65,1.18-2.69-.01-.58-.15-1.11-.33-1.66.66-.8.81-1.75.84-2.62,1.94-.37,3.47-.89,4.83-1.65.45.36.97.59,1.57.69.36.06.76.09,1.23.1-3.23,9.72-12.33,16.78-23.07,16.96M60.26,35.52c-.86.15-1.72.24-2.58.03-.62-.15-1-.56-1.25-1.12-.03-.08-.05-.16-.09-.24-.11-.21-.32-.31-.53-.27-.22.04-.38.21-.41.44-.01.1,0,.2,0,.3.01.1.05.19.08.34-.34.17-.66.38-1.01.51-.72.26-1.45.49-2.19.71-.27.08-.32.04-.4-.22-.13-.44-.24-.87-.13-1.34.15-.61.52-1.02,1.06-1.32.64-.35,1.27-.7,1.96-1.09.1.09.25.24.4.38.18.16.39.23.63.15.36-.12.48-.55.24-.88-.14-.18-.31-.33-.48-.49-.69-.67-1.19-1.45-1.45-2.38-.14-.5-.2-1-.06-1.52.1-.34.27-.63.55-.85,1.11-.85,3.41-1.14,4.69.52.54.7.72,1.49.41,2.33-.29.82-.97,1.1-1.79.76-.44-.18-.77-.48-1.05-.85-.17-.23-.32-.47-.47-.71-.21-.34-.46-.45-.73-.31-.27.14-.37.43-.19.78.51.98,1.21,2.05,2.78,2.39.32.99,1.14,1.22,2.03,1.4-.03.43-.05.87.19,1.24.22.34.5.64.77.97-.3.17-.64.28-1,.34M67.24,31.98c-.48.8-1.17,1.39-1.98,1.84-.68.38-1.39.64-2.2.66-.36-.11-.74-.18-1.08-.34-.36-.16-.56-.46-.52-.89.02-.24.11-.36.35-.39.58-.09,1.13-.28,1.65-.56.88-.47,1.64-1.08,2.3-1.81.24-.27.46-.34.77-.19.06.03.13.05.19.08.79.36.96.87.52,1.61" fill="#1d1d1b"></path>
</svg>